# Blender v2.93.0 OBJ File: ''
# www.blender.org
mtllib cu.mtl
o Cube
v 4.000000 4.000000 -4.000000
v 4.000000 -4.000000 -4.000000
v 4.000000 4.000000 4.000000
v 4.000000 -4.000000 4.000000
v -4.000000 4.000000 -4.000000
v -4.000000 -4.000000 -4.000000
v -4.000000 4.000000 4.000000
v -4.000000 -4.000000 4.000000
v 3.676684 3.676684 -3.676684
v 3.676684 -3.676684 -3.676684
v 3.676684 3.676684 3.676684
v 3.676684 -3.676684 3.676684
v -3.676684 3.676684 -3.676684
v -3.676684 -3.676684 -3.676684
v -3.676684 3.676684 3.676684
v -3.676684 -3.676684 3.676684
vt 0.625000 0.500000
vt 0.875000 0.500000
vt 0.875000 0.750000
vt 0.625000 0.750000
vt 0.625000 0.500000
vt 0.625000 0.750000
vt 0.875000 0.750000
vt 0.875000 0.500000
vt 0.375000 0.750000
vt 0.625000 1.000000
vt 0.375000 1.000000
vt 0.375000 0.750000
vt 0.375000 1.000000
vt 0.625000 1.000000
vt 0.375000 0.500000
vt 0.375000 0.500000
vt 0.375000 0.250000
vt 0.625000 0.250000
vt 0.375000 0.250000
vt 0.625000 0.250000
vt 0.375000 0.000000
vt 0.625000 0.000000
vt 0.375000 0.000000
vt 0.625000 0.000000
vt 0.125000 0.500000
vt 0.125000 0.750000
vt 0.125000 0.500000
vt 0.125000 0.750000
vn 0.0000 1.0000 0.0000
vn 0.0000 -1.0000 0.0000
vn 0.0000 0.0000 1.0000
vn 0.0000 0.0000 -1.0000
vn 1.0000 0.0000 0.0000
vn -1.0000 0.0000 0.0000
g Cube_Cube_Material
usemtl Material
s off
f 1/1/1 5/2/1 7/3/1 3/4/1
f 9/5/2 11/6/2 15/7/2 13/8/2
g Cube_Cube_Material.001
usemtl Material.001
f 4/9/3 3/4/3 7/10/3 8/11/3
f 12/12/4 16/13/4 15/14/4 11/6/4
g Cube_Cube_Material.002
usemtl Material.002
f 2/15/5 1/1/5 3/4/5 4/9/5
f 10/16/6 12/12/6 11/6/6 9/5/6
g Cube_Cube_Material.003
usemtl Material.003
f 6/17/4 5/18/4 1/1/4 2/15/4
f 14/19/3 10/16/3 9/5/3 13/20/3
g Cube_Cube_Material.004
usemtl Material.004
f 8/21/6 7/22/6 5/18/6 6/17/6
f 16/23/5 14/19/5 13/20/5 15/24/5
g Cube_Cube_Material.005
usemtl Material.005
f 6/25/2 2/15/2 4/9/2 8/26/2
f 14/27/1 16/28/1 12/12/1 10/16/1
